<?xml version="1.0" standalone="no"?>
<!DOCTYPE svg PUBLIC "-//W3C//DTD SVG 20010904//EN"
 "http://www.w3.org/TR/2001/REC-SVG-20010904/DTD/svg10.dtd">
<svg version="1.0" xmlns="http://www.w3.org/2000/svg"
 width="690.000000pt" height="519.000000pt" viewBox="0 0 690.000000 519.000000"
 preserveAspectRatio="xMidYMid meet">

<g transform="translate(0.000000,519.000000) scale(0.100000,-0.100000)"
fill="#000000" stroke="none">
<path d="M3305 5128 c-19 -11 -31 -14 -149 -38 -33 -6 -84 -21 -113 -32 l-53
-19 0 -135 c0 -111 -3 -142 -19 -177 -23 -50 -30 -92 -43 -252 -18 -227 -16
-294 11 -345 13 -25 33 -55 45 -67 12 -12 35 -48 50 -80 86 -175 204 -305 329
-360 55 -24 143 -34 194 -22 58 14 123 40 123 50 0 4 10 9 23 13 39 10 157
134 205 216 12 19 37 67 56 106 20 40 43 77 50 83 59 49 89 230 51 304 -11 20
-20 72 -25 137 -7 99 -17 148 -39 195 -24 50 -31 95 -31 185 0 160 4 153 -109
188 -201 63 -194 62 -370 62 -106 0 -173 -5 -186 -12z m75 -606 c41 -5 83 -13
92 -17 10 -4 59 1 109 11 78 15 100 16 154 5 35 -7 77 -10 94 -6 24 5 31 3 31
-8 0 -9 4 -17 8 -19 10 -3 72 -130 72 -145 0 -5 11 -16 25 -23 26 -14 31 -33
26 -105 -4 -54 -36 -115 -61 -115 -11 0 -20 -5 -20 -10 0 -17 -70 -161 -85
-177 -8 -8 -15 -18 -15 -23 0 -4 -28 -37 -62 -73 -152 -156 -305 -167 -467
-32 -67 56 -156 186 -181 264 -8 24 -22 46 -31 48 -36 10 -59 59 -62 134 -2
67 -1 72 26 91 15 11 27 29 27 40 0 23 42 98 68 122 11 9 36 25 58 36 41 21
46 21 194 2z"/>
<path d="M1264 4801 c-63 -10 -115 -27 -180 -57 -28 -13 -55 -24 -61 -24 -11
0 -53 -42 -53 -53 0 -4 -9 -16 -20 -27 -17 -17 -20 -33 -20 -122 0 -128 -15
-223 -42 -266 -16 -27 -19 -45 -16 -96 4 -60 24 -113 120 -313 48 -100 176
-220 308 -288 72 -37 211 -36 254 3 12 11 26 21 31 23 6 2 36 19 67 37 81 48
172 147 193 214 10 29 21 57 26 63 5 5 9 15 9 23 0 8 18 41 39 73 29 43 42 77
51 126 10 61 9 74 -9 132 -12 35 -21 80 -21 101 0 77 -43 247 -83 329 -22 44
-25 47 -162 106 -32 14 -75 18 -210 21 -93 1 -193 -1 -221 -5z m474 -330 c49
-24 79 -46 90 -66 9 -16 22 -35 29 -42 13 -15 28 -136 19 -152 -4 -5 -2 -12 4
-16 5 -3 10 -34 10 -68 0 -55 -5 -70 -35 -117 -19 -30 -35 -60 -35 -66 0 -7
-10 -25 -23 -41 -13 -15 -35 -48 -49 -73 -31 -52 -60 -82 -145 -150 l-62 -50
-121 0 -121 0 -47 44 c-26 25 -65 60 -87 80 -22 19 -62 73 -90 121 -27 48 -64
103 -82 123 -30 33 -40 66 -45 142 -2 25 14 92 28 119 8 14 14 31 14 38 0 7 6
16 13 20 7 4 18 24 23 43 8 29 15 35 39 38 25 2 27 1 12 -8 -27 -17 -10 -30
31 -25 20 3 138 38 262 79 255 84 254 84 368 27z"/>
<path d="M5355 4704 c-136 -13 -142 -15 -177 -47 -19 -18 -55 -47 -81 -64 -42
-29 -47 -37 -47 -70 0 -21 -5 -65 -10 -98 -6 -33 -15 -91 -20 -128 -6 -42 -19
-79 -33 -98 -18 -26 -22 -43 -21 -102 1 -85 6 -97 175 -360 67 -104 177 -212
227 -223 15 -3 46 -13 69 -21 83 -30 222 12 313 95 76 68 176 201 190 250 5
21 25 56 44 78 58 68 84 195 55 271 -6 15 -19 78 -30 138 -19 115 -66 242
-103 284 -11 13 -46 40 -76 59 l-55 36 -190 2 c-104 1 -208 0 -230 -2z m210
-368 c158 -1 173 -3 209 -24 38 -22 38 -22 33 -2 -10 37 12 31 44 -12 17 -24
44 -71 60 -105 16 -34 33 -64 39 -68 13 -8 13 -84 -1 -126 -7 -19 -24 -47 -39
-64 -15 -16 -52 -73 -83 -126 -62 -107 -132 -178 -212 -215 -67 -32 -128 -31
-212 3 -89 35 -205 152 -228 228 -17 59 -40 95 -79 126 -61 48 -75 142 -28
187 15 15 34 41 41 57 23 55 92 135 125 145 17 5 60 6 96 3 36 -3 142 -6 235
-7z"/>
<path d="M2870 3560 c-251 -33 -348 -80 -454 -219 -24 -31 -55 -81 -70 -111
-15 -30 -31 -59 -36 -63 -4 -5 -25 23 -46 63 -42 80 -107 158 -160 190 -28 18
-61 24 -179 32 l-144 11 -73 -36 c-110 -53 -149 -61 -293 -61 -144 -1 -192 10
-300 69 -57 31 -63 32 -125 24 -36 -5 -95 -8 -132 -7 -85 1 -141 -25 -203 -94
-39 -43 -106 -164 -143 -259 -10 -25 -15 -26 -102 -32 -105 -7 -133 -20 -150
-73 -13 -39 -12 -47 36 -269 12 -60 57 -270 99 -465 42 -195 80 -368 86 -385
5 -16 21 -42 36 -57 l27 -28 785 -1 c732 0 880 -5 792 -22 -19 -4 -345 -7
-725 -7 -380 0 -748 -3 -819 -7 -124 -6 -128 -7 -133 -30 -4 -16 -1 -30 10
-41 15 -16 89 -17 864 -20 l848 -3 31 -130 c39 -159 48 -178 98 -206 l40 -23
1150 3 c1079 2 1153 3 1178 20 39 25 55 64 86 200 24 110 29 122 51 128 14 4
356 7 760 8 404 1 779 4 833 8 91 6 100 8 110 30 8 19 7 27 -7 41 -15 16 -78
17 -829 20 -447 1 -823 5 -837 9 -53 15 184 21 875 23 407 1 701 5 690 10 -11
5 -370 9 -797 9 l-778 1 0 23 c0 12 5 42 11 67 6 25 23 106 39 180 71 334 108
499 113 507 7 11 47 244 46 264 0 8 -18 -67 -40 -166 -22 -99 -51 -232 -65
-295 -14 -63 -34 -158 -45 -210 -11 -52 -24 -110 -29 -130 -6 -19 -37 -163
-70 -320 -33 -157 -65 -296 -70 -308 -6 -13 -25 -41 -43 -63 l-32 -39 -1045 1
c-575 0 -1101 4 -1169 8 -177 10 -161 -18 -261 446 -34 154 -63 298 -65 320
-2 22 -38 184 -80 360 -70 296 -91 410 -72 398 4 -2 7 9 7 25 0 42 34 80 83
93 46 12 2806 16 2872 3 37 -7 90 -52 105 -88 8 -20 9 -20 9 2 1 35 -29 80
-64 96 -16 8 -78 18 -137 22 -110 7 -145 16 -120 33 16 9 1600 20 1800 12
l134 -6 29 -33 c26 -28 28 -38 23 -75 -9 -61 -52 -279 -74 -372 -10 -44 -49
-219 -85 -390 -64 -296 -68 -311 -98 -339 -30 -28 -30 -29 -7 -23 14 4 28 7
31 7 7 0 32 97 50 190 6 36 31 146 55 245 23 99 47 205 53 235 6 30 31 150 56
267 l46 212 -25 40 c-30 47 -44 52 -156 60 l-85 6 -35 86 c-45 112 -79 167
-131 213 -60 55 -97 67 -250 78 l-137 10 -71 -36 c-90 -46 -174 -66 -277 -66
-110 0 -185 15 -279 57 -78 35 -83 36 -205 37 -75 0 -143 -5 -169 -13 -60 -17
-150 -106 -198 -195 -21 -38 -42 -71 -48 -72 -5 -2 -30 33 -55 78 -120 219
-207 268 -545 312 -93 12 -101 11 -117 -5 -10 -10 -18 -22 -18 -27 0 -17 -108
-84 -167 -104 -93 -31 -256 -44 -376 -30 -56 6 -124 18 -152 26 -63 19 -160
77 -161 96 -1 8 -2 21 -3 28 0 6 -8 12 -16 12 -8 0 -15 5 -15 10 0 6 -3 10 -7
9 -5 -1 -69 -9 -143 -19z m-662 -516 c81 -9 60 -28 -39 -36 -137 -11 -167 -18
-198 -44 -70 -58 -66 -120 33 -547 75 -328 126 -566 126 -593 0 -12 -110 -14
-789 -14 -769 0 -789 0 -813 20 -37 28 -35 24 -108 360 -69 324 -150 737 -150
769 0 27 7 44 26 62 23 22 36 24 142 29 158 7 1703 2 1770 -6z"/>
<path d="M5456 1088 c1 -106 3 -354 3 -550 l1 -358 43 0 44 0 7 213 c7 230 20
384 36 433 15 43 62 86 91 82 17 -2 31 -17 49 -53 25 -50 25 -52 28 -363 l3
-313 47 3 47 3 5 255 c6 322 -6 447 -48 499 -58 72 -154 74 -219 3 l-33 -36 0
187 0 187 -53 0 -53 0 2 -192z"/>
<path d="M1107 1213 c-4 -3 -7 -237 -7 -520 l0 -513 48 0 49 0 7 227 c5 160
10 230 19 235 7 4 58 8 114 8 l103 0 2 -232 3 -233 53 -3 52 -3 0 303 c1 167
3 401 5 521 l5 218 -58 -3 -57 -3 -5 -235 -5 -235 -100 -3 c-55 -1 -107 2
-115 8 -13 8 -15 43 -12 233 l3 224 -32 7 c-41 8 -64 8 -72 -1z"/>
<path d="M3897 1205 c-2 -5 -2 -27 1 -47 l4 -38 63 0 63 0 6 -37 c4 -21 6
-105 5 -188 0 -82 0 -277 0 -433 l1 -283 53 3 52 3 3 467 2 467 67 3 67 3 9
38 c5 21 8 40 6 42 -10 9 -399 9 -402 0z"/>
<path d="M1836 976 c-77 -32 -112 -66 -97 -92 26 -47 26 -47 76 -15 63 40 105
48 138 26 34 -22 47 -62 54 -171 6 -101 0 -115 -41 -88 -14 8 -52 18 -84 21
-55 5 -61 4 -95 -27 -54 -47 -71 -115 -64 -248 5 -87 10 -111 32 -148 14 -24
39 -51 55 -59 64 -33 153 -7 188 55 21 37 28 37 37 3 9 -39 23 -53 52 -53 l24
0 -3 343 -3 342 -25 44 c-47 83 -143 109 -244 67z m113 -402 c36 -25 51 -75
51 -164 0 -97 -16 -135 -66 -156 -69 -29 -105 25 -105 157 0 92 13 143 44 164
28 19 47 19 76 -1z"/>
<path d="M2423 990 c-55 -11 -87 -34 -115 -79 -19 -30 -23 -50 -22 -118 0
-126 26 -166 183 -286 87 -67 110 -131 77 -212 -23 -53 -78 -71 -123 -40 -20
14 -45 69 -58 128 -5 26 -8 27 -43 21 -20 -3 -40 -10 -45 -13 -13 -12 13 -113
40 -154 70 -109 262 -101 321 13 20 39 23 55 19 120 -7 110 -25 141 -141 235
-109 89 -126 116 -126 202 0 44 5 58 25 78 25 26 63 32 96 15 22 -12 49 -71
49 -106 0 -21 4 -24 25 -19 84 17 77 11 70 63 -15 113 -112 176 -232 152z"/>
<path d="M2917 976 c-93 -38 -118 -74 -84 -120 12 -17 15 -17 52 8 21 14 55
31 77 38 34 10 42 9 66 -9 15 -11 32 -30 38 -42 16 -31 29 -210 16 -223 -6 -6
-24 -2 -50 11 -83 42 -167 16 -207 -64 -28 -56 -29 -247 -2 -318 44 -114 185
-132 247 -32 12 19 25 35 29 35 5 0 15 -18 24 -40 12 -32 20 -40 41 -40 l26 0
0 318 c0 178 -5 336 -11 361 -14 61 -59 115 -107 129 -57 17 -90 15 -155 -12z
m125 -413 c29 -26 41 -80 36 -168 -3 -64 -9 -88 -27 -113 -24 -34 -63 -42
-101 -22 -58 31 -55 274 3 315 25 18 62 13 89 -12z"/>
<path d="M3584 990 c-37 -12 -67 -43 -93 -96 -21 -42 -24 -39 -38 36 -8 41
-11 45 -40 48 -26 3 -32 -1 -35 -20 -2 -13 -2 -193 0 -401 l2 -377 50 0 50 0
0 188 c0 396 31 540 116 542 11 0 29 -9 38 -19 41 -45 45 -83 46 -403 l0 -308
49 0 50 0 3 272 c3 300 -8 434 -39 476 -43 57 -100 79 -159 62z"/>
<path d="M4487 986 c-45 -16 -70 -38 -98 -82 -45 -74 -52 -483 -10 -616 19
-59 26 -69 66 -93 140 -82 304 -3 305 147 0 33 -3 37 -30 43 -37 8 -55 -5 -63
-44 -3 -15 -18 -43 -33 -60 -24 -29 -31 -32 -72 -29 -68 4 -84 38 -86 171 l-1
102 148 3 147 3 0 131 c0 215 -31 295 -124 322 -65 19 -99 19 -149 2z m123
-106 c16 -17 31 -46 34 -68 28 -188 26 -192 -94 -192 l-90 0 0 83 c0 104 13
149 51 181 40 34 65 33 99 -4z"/>
<path d="M5057 987 c-43 -14 -90 -55 -115 -101 -15 -27 -17 -65 -17 -306 0
-262 1 -277 22 -315 39 -73 89 -105 163 -105 90 0 151 51 181 153 24 79 17 97
-37 97 -29 0 -35 -4 -40 -27 -21 -102 -52 -137 -114 -131 -27 2 -39 11 -55 38
-19 33 -20 51 -20 285 1 226 3 253 20 282 38 64 103 66 135 4 10 -20 21 -54
25 -74 8 -40 8 -40 74 -15 22 8 23 12 18 59 -4 28 -16 66 -28 85 -38 62 -137
95 -212 71z"/>
</g>
</svg>
