<?xml version="1.0" standalone="no"?>
<!DOCTYPE svg PUBLIC "-//W3C//DTD SVG 20010904//EN"
 "http://www.w3.org/TR/2001/REC-SVG-20010904/DTD/svg10.dtd">
<svg version="1.0" xmlns="http://www.w3.org/2000/svg"
 width="1095.000000pt" height="874.000000pt" viewBox="0 0 1095.000000 874.000000"
 preserveAspectRatio="xMidYMid meet">

<g transform="translate(0.000000,874.000000) scale(0.100000,-0.100000)"
fill="#1b3a91e7" stroke="none">
<path d="M5300 8700 c-98 -8 -484 -99 -591 -139 l-56 -21 -6 -248 c-3 -135 -4
-248 -2 -251 6 -5 184 -27 385 -48 204 -20 640 -23 840 -4 234 21 410 44 424
55 12 9 12 41 -1 220 -19 277 -17 273 -120 313 -128 51 -316 102 -411 112
-128 14 -353 19 -462 11z"/>
<path d="M1845 8129 c-166 -7 -195 -14 -382 -93 -114 -48 -135 -65 -221 -177
-8 -11 -16 -80 -22 -190 -13 -228 -24 -300 -60 -410 -47 -143 -40 -225 34
-417 56 -146 145 -319 205 -400 134 -179 357 -348 525 -397 82 -24 207 -22
279 5 74 28 311 185 380 253 69 67 134 167 186 284 21 49 64 139 94 199 31 61
63 137 72 169 21 72 21 188 0 282 -8 37 -29 142 -45 233 -50 266 -110 459
-161 510 -40 39 -144 97 -227 125 -60 20 -92 23 -287 27 -121 2 -287 1 -370
-3z m637 -499 c73 -28 175 -88 215 -127 73 -73 94 -153 113 -416 l11 -157 -76
-143 c-128 -236 -254 -393 -436 -543 l-66 -54 -210 0 -210 0 -119 123 c-66 67
-140 149 -166 182 -59 78 -207 305 -242 371 -66 127 -51 274 51 477 51 102 73
127 111 127 24 -1 25 -2 10 -14 -36 -27 -22 -39 38 -31 66 8 151 32 464 130
360 114 395 119 512 75z"/>
<path d="M4633 8002 c-38 -24 -63 -176 -89 -527 -23 -323 -12 -386 94 -554 37
-58 96 -154 132 -214 169 -284 341 -453 537 -529 95 -37 146 -43 256 -29 220
27 412 164 585 419 68 99 255 424 281 487 35 86 41 251 12 390 -11 55 -31 173
-45 262 -27 175 -49 265 -70 282 -9 7 -74 4 -222 -10 -170 -17 -287 -21 -624
-23 -376 -1 -432 1 -600 22 -102 12 -196 25 -210 27 -14 3 -30 1 -37 -3z m692
-328 c158 -16 196 -16 310 -5 95 10 175 11 295 5 l165 -9 71 -135 c39 -74 90
-157 114 -183 l43 -48 -7 -100 c-7 -113 -19 -143 -81 -209 -23 -25 -68 -94
-100 -155 -87 -168 -139 -241 -249 -350 -80 -79 -118 -109 -180 -140 l-79 -40
-121 0 c-115 0 -125 2 -188 32 -86 40 -157 94 -239 179 -76 81 -123 147 -208
300 -34 62 -79 131 -100 155 -58 67 -71 99 -83 218 l-11 109 41 49 c22 26 56
81 77 122 56 112 148 201 229 222 33 9 32 9 301 -17z"/>
<path d="M8670 7969 c-154 -5 -240 -12 -272 -22 -49 -15 -270 -174 -287 -205
-8 -15 -30 -134 -46 -252 -15 -108 -40 -214 -77 -330 l-41 -125 11 -98 c12
-116 32 -162 151 -357 165 -269 318 -456 435 -533 114 -76 279 -110 389 -82
84 22 230 93 303 148 101 77 216 226 349 452 121 206 142 254 155 356 13 97
10 120 -46 369 -66 291 -121 449 -181 519 -19 23 -76 70 -125 106 l-91 65
-201 -2 c-111 -1 -302 -5 -426 -9z m533 -618 c37 -6 86 -20 107 -31 l40 -20 0
25 c0 67 55 6 159 -175 92 -159 97 -177 83 -270 -10 -70 -18 -90 -77 -185
-195 -315 -298 -442 -430 -529 -80 -53 -116 -65 -205 -66 -135 0 -247 43 -375
147 -84 69 -148 152 -209 275 -32 62 -82 141 -121 189 -82 100 -95 130 -95
212 0 63 0 64 85 185 109 158 141 197 190 234 l40 30 370 -5 c204 -3 401 -10
438 -16z"/>
<path d="M4580 6089 c-608 -84 -742 -160 -1000 -566 -33 -51 -63 -93 -67 -93
-4 0 -34 40 -65 88 -125 190 -238 307 -325 336 -48 16 -223 39 -385 52 l-88 6
-122 -55 c-168 -75 -206 -86 -330 -99 -80 -9 -149 -9 -270 0 -180 12 -205 19
-388 101 l-115 52 -150 -11 c-319 -22 -386 -42 -479 -140 -67 -70 -122 -155
-216 -333 -39 -76 -82 -144 -94 -152 -11 -7 -70 -20 -131 -29 -148 -22 -184
-33 -216 -67 -33 -35 -43 -88 -34 -172 7 -65 72 -379 199 -972 160 -744 175
-797 246 -878 l29 -34 1253 -7 c689 -5 1285 -11 1323 -15 l70 -7 -45 -7 c-25
-3 -562 -11 -1195 -18 -1227 -11 -1516 -18 -1553 -38 -28 -15 -29 -52 -1 -77
18 -16 45 -19 222 -25 111 -4 748 -10 1415 -15 l1212 -7 11 -41 c60 -234 104
-387 125 -428 19 -37 40 -59 87 -89 l62 -41 1650 7 c908 4 1775 10 1927 14
257 6 279 7 305 26 42 31 77 111 128 290 58 207 69 231 107 239 52 10 396 17
1503 27 1135 10 1273 15 1305 44 26 23 25 47 -1 71 -29 26 -161 30 -1474 44
-605 7 -1138 15 -1185 19 l-85 7 95 7 c116 9 1680 28 2130 26 424 -1 442 4
480 130 20 67 181 785 310 1386 40 182 74 362 77 402 l6 71 -52 55 c-56 59
-93 75 -179 76 -74 1 -185 20 -199 34 -6 7 -34 62 -61 124 -73 165 -137 266
-213 338 -113 106 -159 121 -472 150 l-168 16 -119 -55 c-165 -77 -220 -94
-355 -108 -193 -20 -359 7 -600 97 l-93 35 -229 0 c-271 0 -302 -6 -394 -80
-78 -62 -133 -127 -221 -257 -37 -57 -72 -103 -77 -103 -4 0 -57 73 -116 162
-62 92 -137 190 -175 227 -131 131 -312 195 -700 246 -170 22 -160 25 -245
-55 -84 -77 -168 -128 -271 -164 -114 -40 -207 -48 -490 -43 -284 5 -342 14
-483 78 -83 38 -124 70 -168 131 -34 47 -78 79 -105 77 -7 -1 -42 -5 -78 -10z
m6117 -870 c29 -10 77 -60 102 -107 20 -37 -6 -187 -145 -837 -204 -957 -237
-1074 -313 -1111 -13 -7 -93 -15 -179 -18 -174 -6 -2447 16 -2456 24 -7 7 29
185 172 855 171 796 165 766 160 866 -4 64 -12 98 -30 134 -36 73 -75 89 -288
120 -227 32 -235 34 -221 49 15 14 83 15 1246 25 1439 12 1918 12 1952 0z
m-7477 -8 c167 -7 242 -20 194 -34 -10 -3 -80 -15 -154 -27 -255 -39 -306 -58
-347 -127 -25 -43 -25 -47 -20 -181 5 -151 9 -173 171 -908 108 -489 146 -680
146 -727 l0 -34 -332 -6 c-576 -12 -2266 -8 -2291 4 -33 17 -67 51 -83 81 -31
60 -143 557 -269 1198 -113 576 -123 655 -84 704 37 46 55 51 239 56 275 9
2635 10 2830 1z m4040 -110 c422 -6 604 -12 625 -20 17 -7 51 -33 77 -58 58
-57 72 -109 59 -223 -7 -70 -316 -1484 -433 -1985 -65 -280 -80 -326 -133
-401 l-44 -61 -92 -6 c-231 -17 -3609 3 -3742 22 -152 21 -172 74 -372 1035
-24 116 -91 429 -150 696 -133 608 -145 671 -145 746 0 84 23 153 62 191 66
62 3 58 998 63 1537 9 2666 9 3290 1z"/>
<path d="M8763 1798 c4 -260 7 -672 7 -915 l0 -443 74 0 73 0 7 218 c13 415
40 760 66 852 12 42 57 99 96 122 25 14 33 14 61 3 39 -16 79 -77 94 -142 13
-57 28 -496 29 -820 l0 -233 43 0 c23 0 59 3 80 7 l39 6 -5 536 c-4 559 -7
595 -50 677 -23 44 -89 98 -136 112 -90 28 -166 5 -251 -74 l-50 -47 0 307 0
306 -92 0 -91 0 6 -472z"/>
<path d="M1520 2150 c-9 -18 -14 -230 -18 -867 l-5 -844 78 3 c75 3 79 4 86
29 3 15 12 156 18 315 12 297 22 399 41 418 7 7 77 12 179 14 l168 4 6 -383
c4 -210 8 -384 11 -386 2 -3 40 -7 84 -10 l79 -6 6 559 c4 308 10 697 14 867
l6 307 -87 0 c-82 0 -87 -1 -96 -24 -8 -22 -30 -522 -30 -692 l0 -77 -171 5
c-112 3 -174 9 -182 17 -9 9 -13 114 -17 381 -3 202 -8 372 -12 375 -4 4 -38
10 -77 13 -64 4 -70 3 -81 -18z"/>
<path d="M6186 2153 c-28 -5 -28 -5 -21 -61 4 -31 11 -62 16 -68 5 -6 52 -14
105 -17 53 -3 98 -8 101 -11 3 -3 8 -354 11 -780 l5 -776 51 0 c28 0 68 3 89
6 l37 7 1 366 c1 597 14 1160 28 1174 7 7 50 13 101 15 54 3 93 9 99 16 6 7
13 37 17 68 l6 55 -38 6 c-42 7 -561 7 -608 0z"/>
<path d="M2816 1789 c-66 -10 -183 -69 -224 -112 -32 -33 -33 -35 -19 -68 26
-64 34 -64 141 -13 69 34 110 47 143 48 41 1 49 -3 83 -41 42 -48 56 -91 69
-221 10 -96 5 -166 -13 -181 -7 -6 -40 -2 -91 10 -95 22 -173 24 -220 5 -43
-18 -100 -95 -122 -166 -13 -42 -17 -90 -17 -205 0 -221 24 -306 103 -378 68
-61 163 -72 249 -28 20 10 61 44 90 74 l52 56 25 -49 c29 -56 58 -80 99 -80
l29 0 -7 573 -8 572 -24 43 c-41 70 -80 108 -141 134 -68 30 -129 38 -197 27z
m95 -700 c15 -11 40 -44 54 -73 26 -52 26 -59 23 -204 -3 -134 -5 -154 -24
-179 -32 -44 -82 -73 -125 -73 -44 0 -82 37 -99 98 -21 77 -6 342 23 398 7 14
26 34 43 45 33 22 62 19 105 -12z"/>
<path d="M3717 1789 c-96 -15 -204 -107 -226 -194 -20 -78 -12 -209 19 -326
10 -38 38 -70 205 -234 210 -207 222 -225 212 -316 -9 -77 -46 -138 -100 -166
-59 -30 -135 25 -181 130 -15 32 -26 64 -26 73 0 8 -11 26 -24 39 -21 21 -28
23 -67 14 -68 -15 -74 -26 -60 -101 27 -137 89 -226 190 -271 59 -27 206 -29
263 -4 52 22 133 100 158 151 24 51 26 134 5 249 -22 125 -51 163 -270 363
-116 106 -147 156 -153 251 -2 35 -1 78 2 97 9 45 57 93 102 102 68 13 112
-26 159 -143 22 -53 27 -58 57 -61 53 -6 107 15 114 43 8 34 -21 125 -58 181
-67 98 -185 144 -321 123z"/>
<path d="M4575 1780 c-75 -24 -162 -76 -188 -112 -17 -23 -19 -34 -11 -65 13
-52 36 -53 142 -4 108 50 156 53 202 15 41 -35 67 -88 80 -165 14 -91 13 -221
-3 -243 -13 -17 -16 -17 -88 3 -139 39 -224 21 -292 -62 -51 -63 -56 -77 -68
-191 -13 -117 -1 -283 27 -375 19 -65 65 -118 129 -147 56 -27 86 -29 153 -12
38 9 60 24 113 80 l67 69 31 -55 c33 -59 54 -76 97 -76 l27 0 -7 493 c-6 478
-13 601 -36 687 -14 52 -77 122 -135 150 -64 31 -165 35 -240 10z m134 -692
c13 -10 37 -36 54 -59 l29 -40 -4 -157 c-5 -170 -16 -215 -59 -243 -65 -43
-138 -29 -169 31 -33 66 -46 175 -31 282 15 114 39 171 83 198 36 21 58 19 97
-12z"/>
<path d="M5655 1791 c-49 -12 -74 -32 -132 -109 -30 -40 -60 -71 -66 -69 -6 2
-20 31 -30 65 -19 67 -48 96 -89 90 -16 -2 -25 -12 -29 -33 -4 -16 -7 -315 -8
-662 l-1 -633 85 0 85 0 0 248 c0 421 24 703 71 829 24 63 85 133 115 133 32
0 80 -36 97 -73 35 -72 39 -132 44 -634 l5 -503 86 0 85 0 -6 483 c-3 265 -11
529 -17 586 -16 154 -57 219 -172 271 -45 20 -73 23 -123 11z"/>
<path d="M7173 1791 c-49 -13 -119 -57 -152 -98 -77 -93 -96 -239 -88 -658 6
-295 16 -382 57 -467 26 -56 49 -78 124 -117 53 -28 66 -31 152 -31 74 0 104
4 138 21 108 51 176 147 176 250 0 66 -16 89 -61 89 -38 0 -66 -28 -109 -108
-42 -79 -79 -107 -142 -107 -55 0 -95 25 -120 76 -36 73 -49 331 -19 362 8 8
82 14 232 17 180 4 222 8 230 20 14 21 3 427 -14 510 -7 36 -21 82 -31 103
-24 49 -86 102 -145 122 -54 19 -183 28 -228 16z m134 -154 c36 -20 72 -77 93
-145 26 -82 36 -205 21 -258 l-11 -41 -67 -6 c-38 -4 -106 -7 -152 -7 l-84 0
6 153 c6 168 14 200 68 261 47 54 84 67 126 43z"/>
<path d="M8131 1789 c-53 -10 -109 -46 -168 -106 -82 -85 -78 -51 -81 -571
l-3 -463 32 -59 c68 -127 139 -171 277 -172 69 -1 95 3 127 19 79 41 142 125
176 233 34 108 9 155 -76 148 -39 -3 -40 -4 -65 -73 -40 -106 -68 -155 -96
-165 -44 -17 -109 -12 -138 11 -56 44 -56 43 -56 491 0 241 4 427 10 447 12
44 64 97 107 112 27 9 38 8 57 -4 34 -23 82 -100 106 -171 l21 -63 42 7 c75
13 97 26 97 59 0 52 -21 134 -47 183 -53 98 -201 161 -322 137z"/>
</g>
</svg>
