<?xml version="1.0" standalone="no"?>
<!DOCTYPE svg PUBLIC "-//W3C//DTD SVG 20010904//EN"
 "http://www.w3.org/TR/2001/REC-SVG-20010904/DTD/svg10.dtd">
<svg version="1.0" xmlns="http://www.w3.org/2000/svg"
 width="1162.000000pt" height="687.000000pt" viewBox="0 0 1162.000000 687.000000"
 preserveAspectRatio="xMidYMid meet">

<g transform="translate(0.000000,687.000000) scale(0.100000,-0.100000)"
fill="#1b3a91e7" stroke="none">
<path d="M5575 6825 c-158 -30 -392 -88 -500 -124 l-110 -36 -3 -267 c-1 -148
1 -268 6 -268 4 0 105 -12 222 -26 265 -32 803 -44 1047 -25 167 14 442 47
467 57 20 8 21 63 6 268 -13 166 -25 234 -47 258 -33 36 -298 123 -468 153
-132 24 -515 29 -620 10z"/>
<path d="M1866 6220 c-146 -17 -369 -106 -451 -182 -85 -77 -94 -98 -105 -235
-29 -350 -29 -348 -79 -537 -36 -136 -25 -236 50 -423 48 -122 133 -290 189
-376 138 -209 436 -431 628 -468 94 -18 202 -6 282 32 96 45 312 193 380 260
79 80 132 168 245 407 124 263 136 301 136 417 1 183 -121 747 -191 884 -35
70 -69 100 -169 151 -142 71 -150 72 -511 75 -179 2 -360 0 -404 -5z m754
-512 c81 -24 215 -103 266 -156 64 -66 93 -183 114 -454 l12 -148 -48 -87
c-160 -297 -307 -487 -505 -649 l-66 -54 -224 0 -224 0 -86 88 c-154 157 -214
229 -306 364 -193 284 -218 341 -210 478 10 168 141 440 213 440 16 0 19 -16
4 -25 -21 -13 -8 -25 28 -25 49 0 140 24 437 115 343 105 374 114 435 123 59
9 104 6 160 -10z"/>
<path d="M4940 6081 c-10 -9 -23 -32 -29 -51 -17 -51 -48 -309 -62 -513 -14
-208 -8 -340 17 -417 22 -65 267 -466 364 -595 156 -208 354 -349 539 -386
118 -23 291 14 432 93 191 108 330 282 575 722 96 172 108 212 108 376 -1 164
-93 705 -130 755 -14 18 -19 18 -256 0 -189 -14 -347 -19 -708 -19 -439 0
-475 2 -649 25 -167 23 -185 24 -201 10z m691 -332 c199 -18 242 -19 389 -9
99 7 228 9 322 5 l157 -7 81 -147 c44 -81 100 -169 124 -197 l43 -49 -8 -102
c-11 -125 -15 -137 -89 -234 -32 -43 -76 -109 -96 -146 -162 -295 -310 -460
-498 -555 -59 -30 -61 -30 -190 -26 -146 6 -167 12 -280 85 -141 91 -239 203
-366 418 -46 77 -103 166 -126 197 -70 94 -84 134 -100 290 -6 66 -6 66 34
120 21 29 58 85 80 124 77 134 154 212 237 242 41 14 35 15 286 -9z"/>
<path d="M9380 6059 c-345 -9 -410 -16 -477 -56 -55 -32 -238 -166 -247 -181
-3 -6 -22 -104 -42 -219 -35 -206 -61 -314 -111 -467 -24 -74 -25 -83 -14
-166 20 -156 56 -231 246 -520 263 -398 440 -533 700 -534 84 0 97 3 189 42
246 105 373 230 578 572 225 374 232 442 99 953 -48 185 -90 304 -131 366 -29
46 -99 108 -206 185 l-51 36 -114 -2 c-63 0 -251 -5 -419 -9z m222 -649 c196
-8 237 -13 298 -33 65 -22 70 -22 70 -6 0 34 23 33 52 -2 42 -49 134 -200 180
-294 37 -75 39 -84 34 -146 -8 -96 -24 -132 -132 -302 -174 -273 -297 -418
-424 -499 -80 -51 -123 -63 -225 -62 -104 1 -186 25 -279 81 -140 85 -222 175
-322 356 -32 56 -90 148 -131 204 -90 125 -103 154 -103 238 0 64 1 66 76 177
101 149 136 194 198 250 l51 48 215 0 c118 0 317 -5 442 -10z"/>
<path d="M4775 4035 c-525 -84 -676 -171 -913 -522 -56 -83 -106 -154 -111
-157 -5 -3 -46 47 -91 112 -153 216 -247 307 -350 336 -53 15 -385 56 -452 56
-18 0 -100 -29 -183 -65 -203 -87 -258 -99 -475 -98 -273 1 -340 14 -559 110
l-125 55 -150 -12 c-219 -17 -336 -36 -400 -64 -98 -44 -190 -154 -311 -376
-95 -174 -126 -221 -151 -230 -13 -5 -79 -19 -147 -30 -147 -26 -200 -47 -222
-90 -24 -46 -29 -117 -15 -201 15 -93 146 -718 250 -1199 123 -562 150 -654
220 -733 l32 -37 462 0 c760 0 2307 -19 2323 -29 22 -12 -328 -20 -1442 -31
-926 -10 -1444 -22 -1493 -36 -32 -9 -40 -50 -14 -76 18 -19 39 -22 174 -29
84 -4 762 -13 1507 -19 745 -5 1356 -12 1358 -14 2 -2 30 -100 63 -217 32
-118 67 -234 78 -259 20 -47 65 -92 131 -134 l37 -24 1820 9 c1884 10 2272 16
2312 38 35 19 85 133 143 326 57 190 70 219 101 236 25 14 523 24 1553 34 840
8 1367 21 1417 35 63 18 73 71 19 92 -37 14 -368 26 -951 33 -1155 13 -1890
27 -1917 34 -17 5 64 11 207 15 312 9 1623 26 2070 26 451 0 507 8 542 80 20
41 105 404 263 1125 127 584 163 761 172 853 l6 63 -49 50 c-60 61 -101 76
-234 89 -177 16 -167 10 -235 156 -84 180 -136 265 -215 348 -117 123 -174
144 -488 177 l-204 21 -147 -65 c-165 -73 -224 -91 -361 -108 -184 -22 -382 8
-622 95 l-127 46 -203 0 c-237 -1 -320 -9 -385 -41 -68 -32 -206 -174 -297
-306 -42 -62 -81 -115 -86 -118 -5 -3 -30 25 -56 62 -236 336 -293 398 -437
468 -50 24 -135 56 -187 70 -134 35 -390 77 -486 79 l-81 1 -64 -55 c-114 -98
-183 -142 -284 -180 -114 -42 -191 -50 -463 -50 -367 0 -436 10 -602 86 -61
29 -90 51 -161 124 -102 105 -86 102 -314 65z m6659 -924 c34 -22 79 -80 90
-117 14 -46 -47 -365 -220 -1164 -160 -737 -199 -862 -278 -895 -18 -8 -94
-17 -177 -20 -155 -8 -2249 11 -2488 21 l-143 7 5 46 c3 25 58 294 122 596
230 1088 227 1068 223 1181 -3 84 -8 108 -29 150 -39 76 -71 89 -321 130 -117
20 -215 38 -217 40 -19 18 46 25 290 30 439 10 2308 22 2726 19 367 -3 384 -4
417 -24z m-7890 -1 c163 -15 153 -21 -100 -66 -223 -39 -293 -65 -331 -123
-21 -31 -23 -46 -23 -161 0 -144 15 -245 84 -566 25 -115 85 -396 134 -624 93
-433 110 -518 114 -585 l3 -40 -220 -6 c-316 -9 -2447 -9 -2527 0 -58 6 -73
12 -103 41 -40 39 -51 69 -104 290 -132 547 -331 1567 -331 1697 0 55 4 66 30
96 17 19 42 38 58 42 69 20 3106 24 3316 5z m4662 -119 c223 -8 221 -7 294
-83 70 -73 76 -146 31 -369 -129 -635 -464 -2123 -507 -2256 -19 -57 -93 -193
-117 -215 -19 -16 -3356 -8 -3892 10 -260 9 -288 16 -332 83 -27 40 -72 167
-103 291 -18 67 -241 1100 -404 1864 -88 409 -91 477 -31 581 30 51 60 72 118
85 97 23 4365 30 4943 9z"/>
</g>
</svg>
